<mxfile host="app.diagrams.net" modified="2023-12-23T11:32:59.749Z" agent="Mozilla/5.0 (Windows NT 10.0; Win64; x64) AppleWebKit/537.36 (KHTML, like Gecko) Chrome/120.0.0.0 Safari/537.36" etag="Owh1tNCu6iLEXctbUrfG" version="22.1.11" type="device">
  <diagram name="Page-1" id="2YBvvXClWsGukQMizWep">
    <mxGraphModel dx="2008" dy="984" grid="1" gridSize="10" guides="1" tooltips="1" connect="1" arrows="1" fold="1" page="1" pageScale="1" pageWidth="850" pageHeight="1100" math="0" shadow="0">
      <root>
        <mxCell id="0" />
        <mxCell id="1" parent="0" />
        <mxCell id="lU6mVO3UbZHwELB_DBvl-1" value="Web App" style="shape=umlLifeline;perimeter=lifelinePerimeter;whiteSpace=wrap;html=1;container=0;dropTarget=0;collapsible=0;recursiveResize=0;outlineConnect=0;portConstraint=eastwest;newEdgeStyle={&quot;edgeStyle&quot;:&quot;elbowEdgeStyle&quot;,&quot;elbow&quot;:&quot;vertical&quot;,&quot;curved&quot;:0,&quot;rounded&quot;:0};" parent="1" vertex="1">
          <mxGeometry x="80" y="40" width="100" height="690" as="geometry" />
        </mxCell>
        <mxCell id="lU6mVO3UbZHwELB_DBvl-2" value="" style="html=1;points=[];perimeter=orthogonalPerimeter;outlineConnect=0;targetShapes=umlLifeline;portConstraint=eastwest;newEdgeStyle={&quot;edgeStyle&quot;:&quot;elbowEdgeStyle&quot;,&quot;elbow&quot;:&quot;vertical&quot;,&quot;curved&quot;:0,&quot;rounded&quot;:0};" parent="lU6mVO3UbZHwELB_DBvl-1" vertex="1">
          <mxGeometry x="45" y="70" width="10" height="30" as="geometry" />
        </mxCell>
        <mxCell id="lU6mVO3UbZHwELB_DBvl-3" value="" style="html=1;points=[];perimeter=orthogonalPerimeter;outlineConnect=0;targetShapes=umlLifeline;portConstraint=eastwest;newEdgeStyle={&quot;edgeStyle&quot;:&quot;elbowEdgeStyle&quot;,&quot;elbow&quot;:&quot;vertical&quot;,&quot;curved&quot;:0,&quot;rounded&quot;:0};" parent="lU6mVO3UbZHwELB_DBvl-1" vertex="1">
          <mxGeometry x="45" y="130" width="10" height="370" as="geometry" />
        </mxCell>
        <mxCell id="lU6mVO3UbZHwELB_DBvl-6" value="&lt;font style=&quot;font-size: 9px;&quot;&gt;Student&lt;/font&gt;" style="shape=umlActor;verticalLabelPosition=bottom;verticalAlign=top;html=1;outlineConnect=0;" parent="1" vertex="1">
          <mxGeometry x="-100" y="40" width="20" height="40" as="geometry" />
        </mxCell>
        <mxCell id="lU6mVO3UbZHwELB_DBvl-7" value="" style="endArrow=none;dashed=1;html=1;rounded=0;" parent="1" source="lU6mVO3UbZHwELB_DBvl-9" edge="1">
          <mxGeometry width="50" height="50" relative="1" as="geometry">
            <mxPoint x="-90" y="350" as="sourcePoint" />
            <mxPoint x="-90" y="100" as="targetPoint" />
          </mxGeometry>
        </mxCell>
        <mxCell id="lU6mVO3UbZHwELB_DBvl-9" value="" style="html=1;points=[];perimeter=orthogonalPerimeter;outlineConnect=0;targetShapes=umlLifeline;portConstraint=eastwest;newEdgeStyle={&quot;edgeStyle&quot;:&quot;elbowEdgeStyle&quot;,&quot;elbow&quot;:&quot;vertical&quot;,&quot;curved&quot;:0,&quot;rounded&quot;:0};" parent="1" vertex="1">
          <mxGeometry x="-95" y="110" width="10" height="610" as="geometry" />
        </mxCell>
        <mxCell id="lU6mVO3UbZHwELB_DBvl-10" value="&lt;font style=&quot;font-size: 9px;&quot;&gt;1 : click(SignInButton)&lt;/font&gt;" style="html=1;verticalAlign=bottom;endArrow=block;edgeStyle=elbowEdgeStyle;elbow=vertical;curved=0;rounded=0;" parent="1" source="lU6mVO3UbZHwELB_DBvl-9" target="lU6mVO3UbZHwELB_DBvl-2" edge="1">
          <mxGeometry relative="1" as="geometry">
            <mxPoint x="-50" y="110" as="sourcePoint" />
            <Array as="points">
              <mxPoint x="30" y="110" />
            </Array>
            <mxPoint x="115" y="110" as="targetPoint" />
          </mxGeometry>
        </mxCell>
        <mxCell id="lU6mVO3UbZHwELB_DBvl-11" value="&lt;font style=&quot;font-size: 9px;&quot;&gt;2 : showPage(signInPage)&lt;/font&gt;" style="html=1;verticalAlign=bottom;endArrow=openThin;dashed=1;endSize=8;edgeStyle=elbowEdgeStyle;elbow=vertical;curved=0;rounded=0;endFill=0;" parent="1" source="lU6mVO3UbZHwELB_DBvl-2" target="lU6mVO3UbZHwELB_DBvl-9" edge="1">
          <mxGeometry relative="1" as="geometry">
            <mxPoint x="-50" y="140" as="targetPoint" />
            <Array as="points">
              <mxPoint x="5" y="140" />
            </Array>
            <mxPoint x="80" y="140" as="sourcePoint" />
          </mxGeometry>
        </mxCell>
        <mxCell id="lU6mVO3UbZHwELB_DBvl-13" value="&lt;font style=&quot;font-size: 9px;&quot;&gt;3 : insertCredentials(credentials)&lt;/font&gt;" style="html=1;verticalAlign=bottom;endArrow=block;edgeStyle=elbowEdgeStyle;elbow=vertical;curved=0;rounded=0;" parent="1" source="lU6mVO3UbZHwELB_DBvl-9" target="lU6mVO3UbZHwELB_DBvl-3" edge="1">
          <mxGeometry relative="1" as="geometry">
            <mxPoint x="-80" y="190" as="sourcePoint" />
            <Array as="points">
              <mxPoint x="30" y="170" />
            </Array>
            <mxPoint x="90" y="200" as="targetPoint" />
            <mxPoint as="offset" />
          </mxGeometry>
        </mxCell>
        <mxCell id="ca0lQkJ44ik3LisBVuS8-15" value="Query Manager" style="shape=umlLifeline;perimeter=lifelinePerimeter;whiteSpace=wrap;html=1;container=1;dropTarget=0;collapsible=0;recursiveResize=0;outlineConnect=0;portConstraint=eastwest;newEdgeStyle={&quot;curved&quot;:0,&quot;rounded&quot;:0};" vertex="1" parent="1">
          <mxGeometry x="400" y="40" width="100" height="690" as="geometry" />
        </mxCell>
        <mxCell id="ca0lQkJ44ik3LisBVuS8-16" value="" style="html=1;points=[];perimeter=orthogonalPerimeter;outlineConnect=0;targetShapes=umlLifeline;portConstraint=eastwest;newEdgeStyle={&quot;edgeStyle&quot;:&quot;elbowEdgeStyle&quot;,&quot;elbow&quot;:&quot;vertical&quot;,&quot;curved&quot;:0,&quot;rounded&quot;:0};" vertex="1" parent="ca0lQkJ44ik3LisBVuS8-15">
          <mxGeometry x="45" y="170" width="10" height="200" as="geometry" />
        </mxCell>
        <mxCell id="ca0lQkJ44ik3LisBVuS8-20" value="" style="html=1;points=[[0,0,0,0,5],[0,1,0,0,-5],[1,0,0,0,5],[1,1,0,0,-5]];perimeter=orthogonalPerimeter;outlineConnect=0;targetShapes=umlLifeline;portConstraint=eastwest;newEdgeStyle={&quot;curved&quot;:0,&quot;rounded&quot;:0};" vertex="1" parent="ca0lQkJ44ik3LisBVuS8-15">
          <mxGeometry x="50" y="190" width="10" height="30" as="geometry" />
        </mxCell>
        <mxCell id="ca0lQkJ44ik3LisBVuS8-21" value="&lt;font style=&quot;font-size: 9px;&quot;&gt;6 : checkValidityCred(credentials)&lt;/font&gt;" style="html=1;align=left;spacingLeft=2;endArrow=block;rounded=0;edgeStyle=orthogonalEdgeStyle;curved=0;rounded=0;" edge="1" target="ca0lQkJ44ik3LisBVuS8-20" parent="ca0lQkJ44ik3LisBVuS8-15">
          <mxGeometry relative="1" as="geometry">
            <mxPoint x="55" y="175" as="sourcePoint" />
            <Array as="points">
              <mxPoint x="80" y="175" />
              <mxPoint x="80" y="190" />
            </Array>
          </mxGeometry>
        </mxCell>
        <mxCell id="ca0lQkJ44ik3LisBVuS8-17" value="&lt;font style=&quot;font-size: 9px;&quot;&gt;4 : insertCredentials(credentials)&lt;/font&gt;" style="html=1;verticalAlign=bottom;endArrow=block;edgeStyle=elbowEdgeStyle;elbow=vertical;curved=0;rounded=0;" edge="1" parent="1" source="lU6mVO3UbZHwELB_DBvl-3" target="ca0lQkJ44ik3LisBVuS8-28">
          <mxGeometry relative="1" as="geometry">
            <mxPoint x="135" y="180" as="sourcePoint" />
            <Array as="points">
              <mxPoint x="250" y="180" />
            </Array>
            <mxPoint x="250" y="180" as="targetPoint" />
            <mxPoint as="offset" />
          </mxGeometry>
        </mxCell>
        <mxCell id="ca0lQkJ44ik3LisBVuS8-18" value="DBMS" style="shape=umlLifeline;perimeter=lifelinePerimeter;whiteSpace=wrap;html=1;container=1;dropTarget=0;collapsible=0;recursiveResize=0;outlineConnect=0;portConstraint=eastwest;newEdgeStyle={&quot;curved&quot;:0,&quot;rounded&quot;:0};" vertex="1" parent="1">
          <mxGeometry x="570" y="40" width="100" height="690" as="geometry" />
        </mxCell>
        <mxCell id="ca0lQkJ44ik3LisBVuS8-19" value="" style="html=1;points=[];perimeter=orthogonalPerimeter;outlineConnect=0;targetShapes=umlLifeline;portConstraint=eastwest;newEdgeStyle={&quot;edgeStyle&quot;:&quot;elbowEdgeStyle&quot;,&quot;elbow&quot;:&quot;vertical&quot;,&quot;curved&quot;:0,&quot;rounded&quot;:0};" vertex="1" parent="ca0lQkJ44ik3LisBVuS8-18">
          <mxGeometry x="45" y="250" width="10" height="30" as="geometry" />
        </mxCell>
        <mxCell id="ca0lQkJ44ik3LisBVuS8-22" value="&lt;font style=&quot;font-size: 9px;&quot;&gt;7 : getUser(query)&lt;/font&gt;" style="html=1;verticalAlign=bottom;endArrow=block;edgeStyle=elbowEdgeStyle;elbow=vertical;curved=0;rounded=0;" edge="1" parent="ca0lQkJ44ik3LisBVuS8-18" target="ca0lQkJ44ik3LisBVuS8-19">
          <mxGeometry relative="1" as="geometry">
            <mxPoint x="-115" y="250" as="sourcePoint" />
            <Array as="points">
              <mxPoint x="-15" y="250" />
            </Array>
            <mxPoint x="30" y="250" as="targetPoint" />
            <mxPoint as="offset" />
          </mxGeometry>
        </mxCell>
        <mxCell id="ca0lQkJ44ik3LisBVuS8-27" value="Account Manager" style="shape=umlLifeline;perimeter=lifelinePerimeter;whiteSpace=wrap;html=1;container=1;dropTarget=0;collapsible=0;recursiveResize=0;outlineConnect=0;portConstraint=eastwest;newEdgeStyle={&quot;curved&quot;:0,&quot;rounded&quot;:0};" vertex="1" parent="1">
          <mxGeometry x="240" y="40" width="100" height="690" as="geometry" />
        </mxCell>
        <mxCell id="ca0lQkJ44ik3LisBVuS8-28" value="" style="html=1;points=[];perimeter=orthogonalPerimeter;outlineConnect=0;targetShapes=umlLifeline;portConstraint=eastwest;newEdgeStyle={&quot;edgeStyle&quot;:&quot;elbowEdgeStyle&quot;,&quot;elbow&quot;:&quot;vertical&quot;,&quot;curved&quot;:0,&quot;rounded&quot;:0};" vertex="1" parent="ca0lQkJ44ik3LisBVuS8-27">
          <mxGeometry x="45" y="140" width="10" height="350" as="geometry" />
        </mxCell>
        <mxCell id="ca0lQkJ44ik3LisBVuS8-29" value="&lt;font style=&quot;font-size: 9px;&quot;&gt;5 : registerUser(credentials)&lt;/font&gt;" style="html=1;verticalAlign=bottom;endArrow=block;edgeStyle=elbowEdgeStyle;elbow=vertical;curved=0;rounded=0;" edge="1" parent="1" source="ca0lQkJ44ik3LisBVuS8-28" target="ca0lQkJ44ik3LisBVuS8-16">
          <mxGeometry relative="1" as="geometry">
            <mxPoint x="290" y="210" as="sourcePoint" />
            <Array as="points">
              <mxPoint x="405" y="210" />
            </Array>
            <mxPoint x="440" y="210" as="targetPoint" />
            <mxPoint as="offset" />
          </mxGeometry>
        </mxCell>
        <mxCell id="ca0lQkJ44ik3LisBVuS8-31" value="&lt;font style=&quot;font-size: 9px;&quot;&gt;8 : userData&lt;/font&gt;" style="html=1;verticalAlign=bottom;endArrow=openThin;dashed=1;endSize=8;edgeStyle=elbowEdgeStyle;elbow=horizontal;curved=0;rounded=0;endFill=0;" edge="1" parent="1" source="ca0lQkJ44ik3LisBVuS8-19">
          <mxGeometry relative="1" as="geometry">
            <mxPoint x="455" y="320" as="targetPoint" />
            <Array as="points">
              <mxPoint x="510" y="320" />
            </Array>
            <mxPoint x="630" y="320" as="sourcePoint" />
          </mxGeometry>
        </mxCell>
        <mxCell id="ca0lQkJ44ik3LisBVuS8-39" value="Notification Manager" style="shape=umlLifeline;perimeter=lifelinePerimeter;whiteSpace=wrap;html=1;container=1;dropTarget=0;collapsible=0;recursiveResize=0;outlineConnect=0;portConstraint=eastwest;newEdgeStyle={&quot;curved&quot;:0,&quot;rounded&quot;:0};" vertex="1" parent="1">
          <mxGeometry x="720" y="40" width="110" height="690" as="geometry" />
        </mxCell>
        <mxCell id="ca0lQkJ44ik3LisBVuS8-45" value="Notification APIs" style="shape=umlLifeline;perimeter=lifelinePerimeter;whiteSpace=wrap;html=1;container=1;dropTarget=0;collapsible=0;recursiveResize=0;outlineConnect=0;portConstraint=eastwest;newEdgeStyle={&quot;curved&quot;:0,&quot;rounded&quot;:0};" vertex="1" parent="1">
          <mxGeometry x="850" y="40" width="100" height="690" as="geometry" />
        </mxCell>
        <mxCell id="ca0lQkJ44ik3LisBVuS8-56" value="&lt;p style=&quot;line-height: 120%; font-size: 9px;&quot;&gt;&lt;b&gt;alt: &lt;/b&gt;checkValidityCred() == true&lt;/p&gt;" style="shape=umlFrame;whiteSpace=wrap;html=1;pointerEvents=0;width=130;height=30;verticalAlign=middle;horizontal=1;labelPosition=center;verticalLabelPosition=middle;align=center;" vertex="1" parent="1">
          <mxGeometry x="-230" y="270" width="1180" height="460" as="geometry" />
        </mxCell>
        <mxCell id="ca0lQkJ44ik3LisBVuS8-57" value="[then]" style="text;html=1;strokeColor=none;fillColor=none;align=center;verticalAlign=middle;whiteSpace=wrap;rounded=0;fontSize=10;" vertex="1" parent="1">
          <mxGeometry x="-175" y="310" width="35" height="10" as="geometry" />
        </mxCell>
        <mxCell id="ca0lQkJ44ik3LisBVuS8-59" value="[else]" style="text;html=1;strokeColor=none;fillColor=none;align=center;verticalAlign=middle;whiteSpace=wrap;rounded=0;fontSize=10;" vertex="1" parent="1">
          <mxGeometry x="-191" y="658.1800000000001" width="35" height="10" as="geometry" />
        </mxCell>
        <mxCell id="ca0lQkJ44ik3LisBVuS8-61" value="&lt;font style=&quot;font-size: 9px;&quot;&gt;20 : outcome&lt;/font&gt;" style="html=1;verticalAlign=bottom;endArrow=openThin;dashed=1;endSize=8;edgeStyle=elbowEdgeStyle;elbow=horizontal;curved=0;rounded=0;endFill=0;" edge="1" parent="1" source="ca0lQkJ44ik3LisBVuS8-75" target="ca0lQkJ44ik3LisBVuS8-76">
          <mxGeometry relative="1" as="geometry">
            <mxPoint x="294" y="674.4700000000001" as="targetPoint" />
            <Array as="points">
              <mxPoint x="344" y="674.4700000000001" />
            </Array>
            <mxPoint x="444" y="674.4700000000001" as="sourcePoint" />
            <mxPoint as="offset" />
          </mxGeometry>
        </mxCell>
        <mxCell id="ca0lQkJ44ik3LisBVuS8-62" value="&lt;font style=&quot;font-size: 9px;&quot;&gt;21 : outcomeMessage&lt;/font&gt;" style="html=1;verticalAlign=bottom;endArrow=openThin;dashed=1;endSize=8;edgeStyle=elbowEdgeStyle;elbow=horizontal;curved=0;rounded=0;endFill=0;" edge="1" parent="1" source="ca0lQkJ44ik3LisBVuS8-76" target="ca0lQkJ44ik3LisBVuS8-77">
          <mxGeometry relative="1" as="geometry">
            <mxPoint x="114" y="698.1800000000001" as="targetPoint" />
            <Array as="points">
              <mxPoint x="159" y="698.1800000000001" />
            </Array>
            <mxPoint x="264" y="698.1800000000001" as="sourcePoint" />
          </mxGeometry>
        </mxCell>
        <mxCell id="ca0lQkJ44ik3LisBVuS8-63" value="&lt;font style=&quot;font-size: 9px;&quot;&gt;22 : showMessage(invalidCredentials)&lt;/font&gt;" style="html=1;verticalAlign=bottom;endArrow=openThin;dashed=1;endSize=8;edgeStyle=elbowEdgeStyle;elbow=vertical;curved=0;rounded=0;endFill=0;" edge="1" parent="1" source="ca0lQkJ44ik3LisBVuS8-77">
          <mxGeometry relative="1" as="geometry">
            <mxPoint x="-86" y="710" as="targetPoint" />
            <Array as="points">
              <mxPoint x="19" y="710" />
            </Array>
            <mxPoint x="104" y="728.1800000000001" as="sourcePoint" />
          </mxGeometry>
        </mxCell>
        <mxCell id="lU6mVO3UbZHwELB_DBvl-37" value="[then]" style="text;html=1;strokeColor=none;fillColor=none;align=center;verticalAlign=middle;whiteSpace=wrap;rounded=0;fontSize=10;" parent="1" vertex="1">
          <mxGeometry x="-175" y="380" width="35" height="10" as="geometry" />
        </mxCell>
        <mxCell id="lU6mVO3UbZHwELB_DBvl-25" value="&lt;p style=&quot;line-height: 120%; font-size: 9px;&quot;&gt;&lt;b&gt;alt: &lt;/b&gt;userData == NULL&lt;/p&gt;" style="shape=umlFrame;whiteSpace=wrap;html=1;pointerEvents=0;width=110;height=30;verticalAlign=middle;horizontal=1;labelPosition=center;verticalLabelPosition=middle;align=center;" parent="1" vertex="1">
          <mxGeometry x="-210" y="340" width="1150" height="290" as="geometry" />
        </mxCell>
        <mxCell id="ca0lQkJ44ik3LisBVuS8-36" value="&lt;font style=&quot;font-size: 9px;&quot;&gt;10 : outcome&lt;/font&gt;" style="html=1;verticalAlign=bottom;endArrow=openThin;dashed=1;endSize=8;edgeStyle=elbowEdgeStyle;elbow=horizontal;curved=0;rounded=0;endFill=0;" edge="1" parent="1" source="ca0lQkJ44ik3LisBVuS8-65" target="ca0lQkJ44ik3LisBVuS8-16">
          <mxGeometry relative="1" as="geometry">
            <mxPoint x="450" y="388.75" as="targetPoint" />
            <Array as="points">
              <mxPoint x="505" y="388.75" />
            </Array>
            <mxPoint x="610" y="388.75" as="sourcePoint" />
            <mxPoint as="offset" />
          </mxGeometry>
        </mxCell>
        <mxCell id="ca0lQkJ44ik3LisBVuS8-37" value="&lt;font style=&quot;font-size: 9px;&quot;&gt;11 : outcome&lt;/font&gt;" style="html=1;verticalAlign=bottom;endArrow=openThin;dashed=1;endSize=8;edgeStyle=elbowEdgeStyle;elbow=horizontal;curved=0;rounded=0;endFill=0;" edge="1" parent="1" source="ca0lQkJ44ik3LisBVuS8-16" target="ca0lQkJ44ik3LisBVuS8-28">
          <mxGeometry relative="1" as="geometry">
            <mxPoint x="295" y="410" as="targetPoint" />
            <Array as="points">
              <mxPoint x="345" y="410" />
            </Array>
            <mxPoint x="445" y="410" as="sourcePoint" />
            <mxPoint as="offset" />
          </mxGeometry>
        </mxCell>
        <mxCell id="ca0lQkJ44ik3LisBVuS8-44" value="" style="html=1;points=[];perimeter=orthogonalPerimeter;outlineConnect=0;targetShapes=umlLifeline;portConstraint=eastwest;newEdgeStyle={&quot;edgeStyle&quot;:&quot;elbowEdgeStyle&quot;,&quot;elbow&quot;:&quot;vertical&quot;,&quot;curved&quot;:0,&quot;rounded&quot;:0};" vertex="1" parent="1">
          <mxGeometry x="770" y="450" width="10" height="30" as="geometry" />
        </mxCell>
        <mxCell id="ca0lQkJ44ik3LisBVuS8-42" value="&lt;font style=&quot;font-size: 9px;&quot;&gt;12 : sendNotification(userEmail, content)&lt;/font&gt;" style="html=1;verticalAlign=bottom;endArrow=open;edgeStyle=elbowEdgeStyle;elbow=vertical;curved=0;rounded=0;endFill=0;" edge="1" parent="1" target="ca0lQkJ44ik3LisBVuS8-44">
          <mxGeometry x="0.0426" relative="1" as="geometry">
            <mxPoint x="295" y="450" as="sourcePoint" />
            <Array as="points">
              <mxPoint x="430" y="450" />
            </Array>
            <mxPoint x="770" y="450" as="targetPoint" />
            <mxPoint as="offset" />
          </mxGeometry>
        </mxCell>
        <mxCell id="ca0lQkJ44ik3LisBVuS8-47" value="&lt;font size=&quot;1&quot;&gt;13 : send notification&lt;/font&gt;" style="html=1;verticalAlign=bottom;endArrow=open;edgeStyle=elbowEdgeStyle;elbow=horizontal;curved=0;rounded=0;endFill=0;" edge="1" parent="1" source="ca0lQkJ44ik3LisBVuS8-44">
          <mxGeometry relative="1" as="geometry">
            <mxPoint x="775" y="470" as="sourcePoint" />
            <Array as="points">
              <mxPoint x="840" y="470" />
            </Array>
            <mxPoint x="899.5" y="470" as="targetPoint" />
            <mxPoint as="offset" />
          </mxGeometry>
        </mxCell>
        <mxCell id="ca0lQkJ44ik3LisBVuS8-48" value="&lt;font style=&quot;font-size: 9px;&quot;&gt;14 : ACK&lt;/font&gt;" style="html=1;verticalAlign=bottom;endArrow=openThin;dashed=1;endSize=8;edgeStyle=elbowEdgeStyle;elbow=horizontal;curved=0;rounded=0;endFill=0;" edge="1" parent="1" source="ca0lQkJ44ik3LisBVuS8-44">
          <mxGeometry relative="1" as="geometry">
            <mxPoint x="295" y="480" as="targetPoint" />
            <Array as="points">
              <mxPoint x="665" y="480" />
            </Array>
            <mxPoint x="770" y="480" as="sourcePoint" />
            <mxPoint as="offset" />
          </mxGeometry>
        </mxCell>
        <mxCell id="ca0lQkJ44ik3LisBVuS8-49" value="&lt;p style=&quot;line-height: 120%; font-size: 9px;&quot;&gt;&lt;b&gt;loop: &lt;/b&gt;ACK == false&lt;/p&gt;" style="shape=umlFrame;whiteSpace=wrap;html=1;pointerEvents=0;width=90;height=20;verticalAlign=middle;horizontal=1;labelPosition=center;verticalLabelPosition=middle;align=center;" vertex="1" parent="1">
          <mxGeometry x="190" y="420" width="600" height="80" as="geometry" />
        </mxCell>
        <mxCell id="ca0lQkJ44ik3LisBVuS8-50" value="&lt;font style=&quot;font-size: 9px;&quot;&gt;15 : outcomeMessage&lt;/font&gt;" style="html=1;verticalAlign=bottom;endArrow=openThin;dashed=1;endSize=8;edgeStyle=elbowEdgeStyle;elbow=horizontal;curved=0;rounded=0;endFill=0;" edge="1" parent="1" source="ca0lQkJ44ik3LisBVuS8-28" target="lU6mVO3UbZHwELB_DBvl-3">
          <mxGeometry relative="1" as="geometry">
            <mxPoint x="130" y="530" as="targetPoint" />
            <Array as="points">
              <mxPoint x="175" y="520" />
            </Array>
            <mxPoint x="280" y="530" as="sourcePoint" />
          </mxGeometry>
        </mxCell>
        <mxCell id="ca0lQkJ44ik3LisBVuS8-52" value="&lt;font style=&quot;font-size: 9px;&quot;&gt;16 : showMessage(outcomeMessage)&lt;/font&gt;" style="html=1;verticalAlign=bottom;endArrow=openThin;dashed=1;endSize=8;edgeStyle=elbowEdgeStyle;elbow=vertical;curved=0;rounded=0;endFill=0;" edge="1" parent="1" source="lU6mVO3UbZHwELB_DBvl-3" target="lU6mVO3UbZHwELB_DBvl-9">
          <mxGeometry relative="1" as="geometry">
            <mxPoint x="-80" y="560" as="targetPoint" />
            <Array as="points">
              <mxPoint x="120" y="540" />
            </Array>
            <mxPoint x="130" y="560" as="sourcePoint" />
          </mxGeometry>
        </mxCell>
        <mxCell id="lU6mVO3UbZHwELB_DBvl-56" value="[else]" style="text;html=1;strokeColor=none;fillColor=none;align=center;verticalAlign=middle;whiteSpace=wrap;rounded=0;fontSize=10;" parent="1" vertex="1">
          <mxGeometry x="-175" y="560" width="35" height="10" as="geometry" />
        </mxCell>
        <mxCell id="ca0lQkJ44ik3LisBVuS8-65" value="" style="html=1;points=[];perimeter=orthogonalPerimeter;outlineConnect=0;targetShapes=umlLifeline;portConstraint=eastwest;newEdgeStyle={&quot;edgeStyle&quot;:&quot;elbowEdgeStyle&quot;,&quot;elbow&quot;:&quot;vertical&quot;,&quot;curved&quot;:0,&quot;rounded&quot;:0};" vertex="1" parent="1">
          <mxGeometry x="615" y="360" width="10" height="30" as="geometry" />
        </mxCell>
        <mxCell id="ca0lQkJ44ik3LisBVuS8-35" value="&lt;font style=&quot;font-size: 9px;&quot;&gt;9 : insertUser(query)&lt;/font&gt;" style="html=1;verticalAlign=bottom;endArrow=block;edgeStyle=elbowEdgeStyle;elbow=vertical;curved=0;rounded=0;" edge="1" parent="1" source="ca0lQkJ44ik3LisBVuS8-16" target="ca0lQkJ44ik3LisBVuS8-65">
          <mxGeometry relative="1" as="geometry">
            <mxPoint x="450" y="359.75" as="sourcePoint" />
            <Array as="points">
              <mxPoint x="550" y="359.75" />
            </Array>
            <mxPoint x="610" y="359.75" as="targetPoint" />
            <mxPoint as="offset" />
          </mxGeometry>
        </mxCell>
        <mxCell id="ca0lQkJ44ik3LisBVuS8-67" value="" style="html=1;points=[];perimeter=orthogonalPerimeter;outlineConnect=0;targetShapes=umlLifeline;portConstraint=eastwest;newEdgeStyle={&quot;edgeStyle&quot;:&quot;elbowEdgeStyle&quot;,&quot;elbow&quot;:&quot;vertical&quot;,&quot;curved&quot;:0,&quot;rounded&quot;:0};" vertex="1" parent="1">
          <mxGeometry x="445" y="550" width="10" height="30" as="geometry" />
        </mxCell>
        <mxCell id="ca0lQkJ44ik3LisBVuS8-68" value="" style="html=1;points=[];perimeter=orthogonalPerimeter;outlineConnect=0;targetShapes=umlLifeline;portConstraint=eastwest;newEdgeStyle={&quot;edgeStyle&quot;:&quot;elbowEdgeStyle&quot;,&quot;elbow&quot;:&quot;vertical&quot;,&quot;curved&quot;:0,&quot;rounded&quot;:0};" vertex="1" parent="1">
          <mxGeometry x="285" y="550" width="10" height="50" as="geometry" />
        </mxCell>
        <mxCell id="ca0lQkJ44ik3LisBVuS8-69" value="&lt;font style=&quot;font-size: 9px;&quot;&gt;17 : outcome&lt;/font&gt;" style="html=1;verticalAlign=bottom;endArrow=openThin;dashed=1;endSize=8;edgeStyle=elbowEdgeStyle;elbow=horizontal;curved=0;rounded=0;endFill=0;" edge="1" parent="1" source="ca0lQkJ44ik3LisBVuS8-67" target="ca0lQkJ44ik3LisBVuS8-68">
          <mxGeometry relative="1" as="geometry">
            <mxPoint x="295" y="580" as="targetPoint" />
            <Array as="points">
              <mxPoint x="345" y="580" />
            </Array>
            <mxPoint x="445" y="580" as="sourcePoint" />
            <mxPoint as="offset" />
          </mxGeometry>
        </mxCell>
        <mxCell id="ca0lQkJ44ik3LisBVuS8-70" value="&lt;font style=&quot;font-size: 9px;&quot;&gt;18 : outcomeMessage&lt;/font&gt;" style="html=1;verticalAlign=bottom;endArrow=openThin;dashed=1;endSize=8;edgeStyle=elbowEdgeStyle;elbow=horizontal;curved=0;rounded=0;endFill=0;" edge="1" parent="1" source="ca0lQkJ44ik3LisBVuS8-68" target="ca0lQkJ44ik3LisBVuS8-71">
          <mxGeometry relative="1" as="geometry">
            <mxPoint x="145" y="600" as="targetPoint" />
            <Array as="points">
              <mxPoint x="185" y="600" />
            </Array>
            <mxPoint x="295" y="600" as="sourcePoint" />
          </mxGeometry>
        </mxCell>
        <mxCell id="ca0lQkJ44ik3LisBVuS8-71" value="" style="html=1;points=[];perimeter=orthogonalPerimeter;outlineConnect=0;targetShapes=umlLifeline;portConstraint=eastwest;newEdgeStyle={&quot;edgeStyle&quot;:&quot;elbowEdgeStyle&quot;,&quot;elbow&quot;:&quot;vertical&quot;,&quot;curved&quot;:0,&quot;rounded&quot;:0};" vertex="1" parent="1">
          <mxGeometry x="125" y="550" width="10" height="70" as="geometry" />
        </mxCell>
        <mxCell id="ca0lQkJ44ik3LisBVuS8-73" value="&lt;font style=&quot;font-size: 9px;&quot;&gt;19 : showMessage(errorAlreadyRegistered)&lt;/font&gt;" style="html=1;verticalAlign=bottom;endArrow=openThin;dashed=1;endSize=8;edgeStyle=elbowEdgeStyle;elbow=horizontal;curved=0;rounded=0;endFill=0;" edge="1" parent="1" source="ca0lQkJ44ik3LisBVuS8-71">
          <mxGeometry relative="1" as="geometry">
            <mxPoint x="-85" y="620" as="targetPoint" />
            <Array as="points">
              <mxPoint x="15" y="620" />
            </Array>
            <mxPoint x="130" y="620" as="sourcePoint" />
          </mxGeometry>
        </mxCell>
        <mxCell id="ca0lQkJ44ik3LisBVuS8-75" value="" style="html=1;points=[];perimeter=orthogonalPerimeter;outlineConnect=0;targetShapes=umlLifeline;portConstraint=eastwest;newEdgeStyle={&quot;edgeStyle&quot;:&quot;elbowEdgeStyle&quot;,&quot;elbow&quot;:&quot;vertical&quot;,&quot;curved&quot;:0,&quot;rounded&quot;:0};" vertex="1" parent="1">
          <mxGeometry x="444" y="650" width="10" height="30" as="geometry" />
        </mxCell>
        <mxCell id="ca0lQkJ44ik3LisBVuS8-76" value="" style="html=1;points=[];perimeter=orthogonalPerimeter;outlineConnect=0;targetShapes=umlLifeline;portConstraint=eastwest;newEdgeStyle={&quot;edgeStyle&quot;:&quot;elbowEdgeStyle&quot;,&quot;elbow&quot;:&quot;vertical&quot;,&quot;curved&quot;:0,&quot;rounded&quot;:0};" vertex="1" parent="1">
          <mxGeometry x="284" y="650" width="10" height="50" as="geometry" />
        </mxCell>
        <mxCell id="ca0lQkJ44ik3LisBVuS8-77" value="" style="html=1;points=[];perimeter=orthogonalPerimeter;outlineConnect=0;targetShapes=umlLifeline;portConstraint=eastwest;newEdgeStyle={&quot;edgeStyle&quot;:&quot;elbowEdgeStyle&quot;,&quot;elbow&quot;:&quot;vertical&quot;,&quot;curved&quot;:0,&quot;rounded&quot;:0};" vertex="1" parent="1">
          <mxGeometry x="124" y="650" width="10" height="60" as="geometry" />
        </mxCell>
        <mxCell id="ca0lQkJ44ik3LisBVuS8-78" value="" style="endArrow=none;dashed=1;html=1;rounded=0;" edge="1" parent="1">
          <mxGeometry width="50" height="50" relative="1" as="geometry">
            <mxPoint x="-90.43" y="730" as="sourcePoint" />
            <mxPoint x="-90.43" y="720" as="targetPoint" />
          </mxGeometry>
        </mxCell>
        <mxCell id="ca0lQkJ44ik3LisBVuS8-79" value="" style="endArrow=none;dashed=1;html=1;rounded=0;strokeWidth=2;entryX=0.999;entryY=0.828;entryDx=0;entryDy=0;entryPerimeter=0;" edge="1" parent="1">
          <mxGeometry width="50" height="50" relative="1" as="geometry">
            <mxPoint x="-231" y="650.1800000000001" as="sourcePoint" />
            <mxPoint x="949" y="651" as="targetPoint" />
          </mxGeometry>
        </mxCell>
        <mxCell id="ca0lQkJ44ik3LisBVuS8-80" value="" style="endArrow=none;dashed=1;html=1;rounded=0;exitX=0.001;exitY=0.409;exitDx=0;exitDy=0;exitPerimeter=0;strokeWidth=2;entryX=0.998;entryY=0.732;entryDx=0;entryDy=0;entryPerimeter=0;" edge="1" parent="1">
          <mxGeometry width="50" height="50" relative="1" as="geometry">
            <mxPoint x="-210" y="550" as="sourcePoint" />
            <mxPoint x="938" y="552" as="targetPoint" />
          </mxGeometry>
        </mxCell>
      </root>
    </mxGraphModel>
  </diagram>
</mxfile>
